<svg width="18" height="22" viewBox="0 0 18 22" fill="none" xmlns="http://www.w3.org/2000/svg">
<path d="M7.34489 5.49527L2.64314 14.1168L2.6431 19.4704C2.6431 20.2999 3.59477 20.7687 4.25245 20.2633L8.62913 16.8998L13.9735 8.11349M2.64314 14.1168C2.64314 14.1168 4.56401 14.2842 5.67794 14.7547C6.99359 15.3105 8.62913 16.8998 8.62913 16.8998M13.9735 8.11349L15.4122 5.83331C15.8893 5.07717 15.8096 4.09142 15.146 3.49235C14.5825 2.98378 13.8752 2.42262 13.2227 2.12771C12.4969 1.79969 11.472 1.63526 10.672 1.55319C9.91869 1.47591 9.21858 1.89679 8.86884 2.56847L7.34489 5.49527M13.9735 8.11349C13.9735 8.11349 12.1186 6.5461 10.6854 6.02858C9.44449 5.58049 7.34489 5.49527 7.34489 5.49527" stroke="black" stroke-opacity="0.55" stroke-width="2"/>
</svg>
