<svg width="22" height="22" viewBox="0 0 22 22" fill="none" xmlns="http://www.w3.org/2000/svg">
<path d="M11 2L11.7071 1.29289L11 0.585786L10.2929 1.29289L11 2ZM18.2929 10.7071C18.6834 11.0976 19.3166 11.0976 19.7071 10.7071C20.0976 10.3166 20.0976 9.68342 19.7071 9.29289L19 10L18.2929 10.7071ZM2.29289 9.29289C1.90237 9.68342 1.90237 10.3166 2.29289 10.7071C2.68342 11.0976 3.31658 11.0976 3.70711 10.7071L3 10L2.29289 9.29289ZM11 2H10V21H11H12V2H11ZM11 2L10.2929 2.70711L18.2929 10.7071L19 10L19.7071 9.29289L11.7071 1.29289L11 2ZM11 2L10.2929 1.29289L2.29289 9.29289L3 10L3.70711 10.7071L11.7071 2.70711L11 2Z" fill="black"/>
</svg>
