<svg width="19" height="24" viewBox="0 0 19 24" fill="none" xmlns="http://www.w3.org/2000/svg">
<path d="M7 6H4.11941C3.52264 6 3.05871 6.51933 3.12574 7.11233L4.59531 20.1123C4.65246 20.6179 5.08016 21 5.58898 21H8M7 6L8 21M7 6H12M8 21H11.1522M12 6H14.8806C15.4774 6 15.9413 6.51933 15.8743 7.11233L14.4047 20.1123C14.3475 20.6179 13.9198 21 13.411 21H11.1522M12 6L11.1522 21" stroke="black" stroke-opacity="0.55" stroke-width="2"/>
<path d="M4.5 2.5C5.3 2.5 9.83333 2.5 14.5 2.5" stroke="black" stroke-opacity="0.55" stroke-width="2" stroke-linecap="round"/>
</svg>
