<svg width="24" height="24" viewBox="0 0 24 24" fill="none" xmlns="http://www.w3.org/2000/svg">
<path d="M20 8.99999L19.2929 9.70705V9.70705L20 8.99999ZM4.57143 15L3.57678 15.1034L3.67987 16.0956L4.67237 15.9949L4.57143 15ZM9.60094 15.4949C10.1504 15.4391 10.5506 14.9485 10.4949 14.3991C10.4391 13.8496 9.94852 13.4494 9.39906 13.5051L9.5 14.5L9.60094 15.4949ZM4.99465 9.39666C4.93757 8.84733 4.44599 8.44828 3.89666 8.50535C3.34733 8.56243 2.94828 9.05401 3.00535 9.60334L4 9.5L4.99465 9.39666ZM20 8.99999L20.7071 8.29292C16.8209 4.40618 7.78229 5.66932 3.66369 14.5805L4.57143 15L5.47917 15.4196C9.21771 7.33068 16.71 7.12385 19.2929 9.70705L20 8.99999ZM4.57143 15L4.67237 15.9949L9.60094 15.4949L9.5 14.5L9.39906 13.5051L4.47049 14.0051L4.57143 15ZM4.57143 15L5.56607 14.8967L4.99465 9.39666L4 9.5L3.00535 9.60334L3.57678 15.1034L4.57143 15ZM20 8.99999L19.2929 9.70705C20.4431 10.8575 20.8935 12.3313 20.531 13.753L21.5 14L22.469 14.2471C23.0279 12.0552 22.2902 9.87613 20.7071 8.29292L20 8.99999ZM21.5 14L20.531 13.753C20.3756 14.3625 19.8149 15.1616 18.9326 15.6982C18.0822 16.2154 17.0014 16.4465 15.8162 16.0514L15.5 17.0001L15.1838 17.9488C16.9986 18.5537 18.6875 18.1881 19.9719 17.407C21.2244 16.6453 22.1637 15.4443 22.469 14.2471L21.5 14Z" fill="black" fill-opacity="0.55"/>
</svg>
