<svg width="24" height="24" viewBox="0 0 24 24" fill="none" xmlns="http://www.w3.org/2000/svg">
<path d="M4.65399 8.99999L5.36114 9.70705V9.70705L4.65399 8.99999ZM20.0826 15L21.0772 15.1034L20.9741 16.0956L19.9816 15.9949L20.0826 15ZM15.0531 15.4949C14.5036 15.4391 14.1034 14.9485 14.1591 14.3991C14.2148 13.8496 14.7055 13.4494 15.2549 13.5051L15.154 14.5L15.0531 15.4949ZM19.6593 9.39666C19.7164 8.84733 20.208 8.44828 20.7573 8.50535C21.3067 8.56243 21.7057 9.05401 21.6486 9.60334L20.654 9.5L19.6593 9.39666ZM4.65399 8.99999L3.94684 8.29292C7.83312 4.40618 16.8717 5.66932 20.9903 14.5805L20.0826 15L19.1748 15.4196C15.4363 7.33068 7.94404 7.12385 5.36114 9.70705L4.65399 8.99999ZM20.0826 15L19.9816 15.9949L15.0531 15.4949L15.154 14.5L15.2549 13.5051L20.1835 14.0051L20.0826 15ZM20.0826 15L19.0879 14.8967L19.6593 9.39666L20.654 9.5L21.6486 9.60334L21.0772 15.1034L20.0826 15ZM4.65399 8.99999L5.36114 9.70705C4.21085 10.8575 3.7605 12.3313 4.12299 13.753L3.15399 14L2.18499 14.2471C1.62612 12.0552 2.36382 9.87613 3.94684 8.29292L4.65399 8.99999ZM3.15399 14L4.12299 13.753C4.27842 14.3625 4.83905 15.1616 5.72137 15.6982C6.57182 16.2154 7.6526 16.4465 8.83776 16.0514L9.15399 17.0001L9.47022 17.9488C7.65538 18.5537 5.96651 18.1881 4.68213 17.407C3.42962 16.6453 2.49025 15.4443 2.18499 14.2471L3.15399 14Z" fill="black" fill-opacity="0.55"/>
</svg>
